<?xml version="1.0" standalone="no"?>
<!DOCTYPE svg PUBLIC "-//W3C//DTD SVG 20010904//EN"
 "http://www.w3.org/TR/2001/REC-SVG-20010904/DTD/svg10.dtd">
<svg version="1.0" xmlns="http://www.w3.org/2000/svg"
 width="300.000000pt" height="156.000000pt" viewBox="0 0 300.000000 156.000000"
 preserveAspectRatio="xMidYMid meet">
<metadata>
Created by potrace 1.10, written by Peter Selinger 2001-2011
</metadata>
<g transform="translate(0.000000,156.000000) scale(0.100000,-0.100000)"
fill="#000000" stroke="none">
<path d="M870 924 c68 -12 71 -14 68 -42 -2 -16 -12 -31 -28 -39 -22 -11 -22
-13 -5 -13 34 0 47 16 49 56 l2 39 -56 1 c-30 1 -44 0 -30 -2z"/>
<path d="M1595 916 c-11 -8 -25 -12 -31 -9 -9 3 -13 -15 -16 -61 -3 -64 3 -83
16 -50 6 16 8 16 24 0 19 -16 67 -21 97 -10 17 7 42 52 39 72 -1 6 -2 21 -3
33 0 11 -5 18 -10 15 -5 -3 -14 1 -21 9 -16 19 -70 19 -95 1z m89 -12 c19 -18
21 -85 4 -102 -7 -7 -29 -12 -50 -12 -29 0 -41 6 -54 25 -19 29 -11 80 14 95
26 15 69 12 86 -6z"/>
<path d="M1616 887 c-38 -27 2 -95 42 -71 23 15 27 48 7 68 -20 19 -26 20 -49
3z m47 -29 c6 -22 -6 -38 -30 -38 -17 0 -25 17 -18 40 9 27 41 26 48 -2z"/>
<path d="M1877 921 c54 -9 73 -26 73 -65 0 -46 -13 -59 -67 -67 l-48 -6 46 -2
c30 -1 51 4 59 14 7 8 16 12 21 9 5 -3 9 22 9 55 l0 60 43 4 42 4 -43 1 c-30
1 -44 -3 -48 -13 -5 -13 -9 -13 -34 0 -16 8 -44 14 -62 14 -31 -1 -30 -2 9 -8z"/>
<path d="M982 868 c-2 -48 1 -58 14 -58 12 0 14 3 6 13 -6 7 -12 33 -15 57 -3
42 -4 41 -5 -12z"/>
<path d="M1141 914 c-1 -6 10 -37 24 -69 l26 -58 -22 6 c-17 5 -19 3 -10 -6 8
-8 16 -9 29 0 11 6 25 7 33 3 8 -5 60 -8 115 -7 l99 2 3 63 c3 57 -7 78 -23
52 -4 -6 -19 -9 -33 -8 -19 2 -27 -2 -27 -12 0 -8 7 -13 15 -12 47 11 57 11
57 -3 0 -8 -4 -12 -9 -9 -4 3 -8 0 -8 -5 0 -6 -13 -11 -30 -11 -20 0 -30 -5
-30 -15 0 -10 9 -15 28 -14 23 0 24 1 7 8 -17 7 -15 9 13 13 33 5 36 1 26 -26
-4 -11 -19 -16 -50 -16 l-44 0 0 59 c0 33 -4 63 -10 66 -5 3 -10 -1 -10 -10 0
-13 -6 -16 -23 -11 -35 8 -59 -14 -55 -49 2 -25 8 -30 33 -32 28 -2 28 -1 5 5
-18 6 -25 15 -25 32 0 22 5 25 38 28 35 3 37 2 37 -27 0 -50 -9 -61 -50 -61
-21 0 -45 7 -53 15 -8 8 -17 11 -20 8 -4 -3 -4 12 0 33 3 22 14 47 25 57 11 9
16 17 11 17 -13 0 -43 -34 -43 -48 0 -24 -20 -11 -34 21 -8 17 -15 27 -15 21z"/>
<path d="M1752 868 c-2 -54 -1 -58 21 -57 16 1 17 3 5 6 -13 3 -18 18 -21 56
l-3 52 -2 -57z"/>
<path d="M2056 904 c-4 -11 -13 -14 -31 -10 -20 5 -25 3 -25 -13 0 -17 3 -18
30 -8 33 13 43 8 34 -17 -4 -10 -18 -16 -40 -16 -26 0 -32 -3 -28 -15 4 -9 18
-15 33 -14 l26 1 -25 8 c-23 7 -23 8 -3 9 41 2 53 12 53 46 0 37 -14 54 -24
29z"/>
<path d="M2178 895 c2 -14 -1 -32 -8 -40 -10 -12 -9 -20 4 -39 15 -23 15 -25
-7 -29 -19 -4 -18 -4 6 -6 31 -1 33 6 12 36 -10 14 -12 24 -5 28 12 8 13 62 1
69 -4 3 -6 -6 -3 -19z"/>
<path d="M870 844 c0 -32 -5 -54 -12 -57 -8 -3 -6 -6 5 -6 13 -1 17 7 17 35 0
25 7 41 22 53 l21 18 -26 5 c-27 5 -27 4 -27 -48z"/>
<path d="M1860 854 c0 -43 1 -45 27 -42 14 2 28 10 31 18 4 12 2 13 -9 3 -23
-22 -39 -15 -39 17 0 34 23 41 39 13 9 -16 10 -16 11 3 0 14 -8 24 -22 28 -37
9 -38 8 -38 -40z"/>
<path d="M2110 844 c0 -32 -5 -54 -12 -57 -8 -3 -6 -6 5 -6 11 -1 17 6 17 20
0 19 2 20 17 8 16 -13 16 -13 0 11 -22 31 -21 37 3 43 28 7 25 24 -5 29 -24 5
-25 3 -25 -48z"/>
<path d="M1100 840 c-8 -23 -21 -45 -29 -50 -14 -8 -14 -9 1 -10 9 0 19 8 23
19 3 11 14 17 28 16 13 -1 15 0 4 2 -19 5 -18 30 1 26 5 -1 8 7 5 17 -8 31
-18 24 -33 -20z"/>
<path d="M1470 816 c0 -13 -5 -27 -10 -29 -6 -3 -5 -4 2 -3 7 1 14 12 16 24 4
27 38 30 45 5 4 -14 5 -12 6 5 1 18 -4 22 -29 22 -25 0 -30 -4 -30 -24z"/>
<path d="M1813 806 c-4 -8 -26 -16 -48 -19 -40 -4 -39 -4 8 -5 35 -2 49 2 54
13 8 21 -3 30 -14 11z"/>
<path d="M1040 801 c0 -6 -19 -12 -42 -14 l-43 -4 48 -1 c36 -2 47 2 47 13 0
8 -2 15 -5 15 -3 0 -5 -4 -5 -9z"/>
<path d="M2060 801 c0 -6 -19 -12 -42 -14 l-43 -4 48 -1 c36 -2 47 2 47 13 0
8 -2 15 -5 15 -3 0 -5 -4 -5 -9z"/>
<path d="M1248 703 c8 -3 12 -26 12 -68 0 -41 -4 -65 -12 -68 -8 -3 -7 -6 4
-6 24 -1 27 8 30 78 3 77 21 81 51 11 l21 -49 18 41 c21 48 23 71 3 44 -8 -10
-12 -23 -9 -27 3 -5 0 -9 -6 -9 -6 0 -16 11 -22 25 -6 14 -14 26 -17 26 -16 4
-84 5 -73 2z"/>
<path d="M1485 702 c-6 -4 -18 -23 -27 -42 l-17 -35 0 33 c-2 59 -21 33 -21
-28 0 -67 -20 -84 -21 -17 l-1 42 -15 -42 c-8 -24 -21 -43 -28 -43 -7 0 -20
19 -28 43 l-15 42 -1 -42 c-1 -23 -7 -44 -13 -46 -8 -3 -6 -6 5 -6 9 -1 17 4
17 11 0 9 3 9 12 0 15 -15 48 -16 48 -1 0 8 4 8 13 2 20 -16 76 -13 86 4 5 11
17 14 35 11 14 -3 26 -1 26 3 0 5 -11 9 -25 9 -28 0 -33 15 -9 28 12 7 14 14
7 27 -9 14 -13 9 -29 -34 -10 -28 -24 -51 -31 -51 -17 0 -17 -1 13 70 18 39
32 60 41 58 8 -2 26 -30 40 -62 20 -47 22 -61 11 -67 -10 -7 -9 -9 4 -9 9 0
18 6 21 13 3 9 7 9 18 0 16 -13 209 -18 209 -5 0 4 -22 5 -50 4 l-50 -4 0 66
0 66 45 0 c25 0 45 -4 45 -10 0 -5 -13 -10 -30 -10 -23 0 -30 -5 -30 -19 0
-14 6 -17 25 -14 30 6 49 28 42 47 -5 12 -26 15 -99 15 -101 -1 -128 -9 -128
-39 0 -29 -19 -24 -38 10 -17 29 -37 37 -57 22z m207 -17 c-2 -5 -12 -9 -22
-7 -47 8 -79 -45 -48 -76 19 -19 48 -15 48 8 0 11 6 20 13 20 9 0 12 -10 9
-30 -4 -26 -9 -30 -34 -30 -37 0 -68 16 -68 35 0 8 -4 15 -10 15 -13 0 9 51
29 68 18 15 88 12 83 -3z m8 -34 c0 -5 -11 -12 -25 -15 -14 -4 -23 -11 -20
-16 3 -6 -1 -10 -9 -10 -16 0 -22 31 -9 43 10 10 63 8 63 -2z"/>
<path d="M1801 638 c-1 -13 -9 -18 -31 -18 -20 0 -30 -5 -30 -15 0 -10 10 -15
33 -14 17 0 26 3 19 6 -10 4 -9 8 4 17 9 7 14 19 11 27 -4 10 -6 9 -6 -3z"/>
</g>
</svg>
